# xmcd
#
# Track frame offsets:
#	150
#	17240
#	38107
#	53452
#	71375
#	89004
#	106280
#	124435
#	142455
#	158400
#	173225
#	192195
#	208485
#	225823
#	242165
#
# Disc length: 3485 seconds
#
# Revision: 1
# Processed by: cddbd v1.5.1PL2 Copyright (c) Steve Scherf et al.
# Submitted via: audiograbber 1.83.01
#
DISCID=d10d9b0f
DTITLE=Various Artist - SC8705
DYEAR=1900
DGENRE=
TTITLE0=Johnson, Carolyn Daw - Complicated
TTITLE1=Willis, Mark - Loving Every Minute
TTITLE2=Griggs, Andy - How Cool Is That
TTITLE3=Shelton, Blake - Austin
TTITLE4=Messina, Jo Dee - Downtime
TTITLE5=Diamond Rio - Sweet Summer
TTITLE6=Trick Pony - On A Night Like This
TTITLE7=3 Of Hearts - Love Is Enough
TTITLE8=Rimes, LeAnn - But I Do Love You
TTITLE9=Gilman, Billy - She's My Girl
TTITLE10=McGraw, Tim - Telluride
TTITLE11=Clark Family Experience - Standin' Still
TTITLE12=Hill, Faith - There You'll Be
TTITLE13=Sellers, Shane - Matthew, Mark, Luke And Earnhardt
TTITLE14=McCann, Lila - Come A Little Closer
EXTD=
EXTT0=
EXTT1=
EXTT2=
EXTT3=
EXTT4=
EXTT5=
EXTT6=
EXTT7=
EXTT8=
EXTT9=
EXTT10=
EXTT11=
EXTT12=
EXTT13=
EXTT14=
PLAYORDER=
